<?xml version="1.0" standalone="no"?>
<!DOCTYPE svg PUBLIC "-//W3C//DTD SVG 20010904//EN"
 "http://www.w3.org/TR/2001/REC-SVG-20010904/DTD/svg10.dtd">
<svg version="1.0" xmlns="http://www.w3.org/2000/svg"
 width="525.000000pt" height="525.000000pt" viewBox="0 0 525.000000 525.000000"
 preserveAspectRatio="xMidYMid meet">

<g transform="translate(0.000000,525.000000) scale(0.100000,-0.100000)"
fill="#000000" stroke="none">
<path d="M3294 3900 c-47 -7 -101 -44 -136 -92 -19 -28 -23 -46 -23 -109 0
-68 3 -79 30 -115 44 -58 64 -72 122 -84 91 -19 165 7 218 76 40 52 47 153 15
219 -38 79 -124 119 -226 105z"/>
<path d="M1860 3878 c-75 -48 -100 -94 -100 -185 0 -61 4 -75 29 -110 44 -61
94 -88 166 -88 83 0 106 8 153 55 96 97 72 268 -48 331 -51 28 -154 26 -200
-3z"/>
<path d="M1120 3080 l0 -810 40 0 c22 -1 93 -1 158 -1 l117 0 5 633 c3 348 8
628 12 623 8 -12 38 -105 68 -205 12 -41 25 -84 30 -95 4 -11 18 -54 30 -95
13 -41 26 -84 30 -95 7 -18 39 -119 77 -250 8 -27 19 -59 23 -70 7 -18 34
-101 102 -325 11 -36 24 -74 29 -85 4 -11 10 -126 11 -255 3 -205 6 -239 22
-269 49 -91 172 -146 386 -170 243 -29 403 -33 605 -17 324 26 472 71 543 164
l27 35 5 241 6 241 38 115 c20 63 42 131 47 150 6 19 14 44 19 55 5 11 18 54
30 95 12 41 25 84 30 95 5 11 14 39 20 62 6 23 21 75 34 115 13 40 33 107 45
148 13 41 26 84 31 95 9 23 39 119 70 225 12 41 23 81 25 88 3 6 8 12 13 12
17 0 22 -163 22 -710 l-1 -551 156 -2 155 -2 0 813 0 812 -219 0 c-163 0 -221
-3 -228 -12 -10 -13 -17 -34 -68 -203 -15 -49 -31 -99 -35 -110 -5 -11 -12
-36 -16 -55 -3 -19 -10 -41 -15 -50 -4 -8 -18 -49 -29 -90 -12 -41 -25 -84
-30 -95 -5 -11 -14 -39 -20 -62 -6 -23 -21 -75 -34 -115 -13 -40 -33 -107 -45
-148 -13 -41 -26 -84 -31 -95 -13 -32 -50 -157 -50 -172 0 -7 -6 -13 -14 -13
-14 0 -30 33 -42 85 -4 17 -10 35 -14 40 -4 6 -11 26 -15 45 -4 19 -11 41 -16
50 -5 8 -40 112 -79 230 -39 118 -74 222 -79 230 -5 9 -12 31 -16 50 -4 19
-11 40 -15 45 -4 6 -11 26 -15 45 -4 19 -11 41 -16 50 -5 8 -27 71 -49 140
-23 69 -45 134 -50 145 -5 11 -12 30 -15 43 l-6 22 -271 -2 -271 -3 -9 -30
c-5 -16 -13 -39 -18 -50 -14 -32 -101 -287 -112 -330 -6 -22 -14 -44 -18 -50
-4 -5 -11 -26 -15 -45 -4 -19 -11 -41 -16 -50 -5 -8 -40 -112 -79 -230 -38
-118 -74 -222 -79 -230 -5 -9 -12 -31 -16 -50 -4 -19 -11 -39 -15 -45 -4 -5
-11 -26 -15 -45 -8 -39 -30 -76 -38 -63 -2 4 -16 49 -31 98 -15 50 -31 97 -35
105 -5 9 -12 31 -15 50 -4 19 -11 44 -16 55 -4 11 -15 43 -23 70 -42 141 -70
232 -77 250 -5 11 -18 54 -30 95 -11 41 -25 82 -29 90 -5 9 -12 31 -15 50 -4
19 -11 44 -16 55 -5 11 -18 54 -30 95 -12 41 -32 104 -44 140 l-22 65 -222 3
-222 2 0 -810z m1370 -179 l0 -629 33 -5 c17 -3 87 -4 155 -4 l122 2 2 530 c3
743 3 723 9 730 10 10 25 -18 48 -95 13 -41 32 -104 43 -140 11 -36 24 -74 28
-85 5 -11 18 -54 30 -95 12 -41 32 -106 45 -145 13 -38 35 -110 49 -160 15
-49 31 -97 35 -105 5 -9 12 -31 16 -50 4 -19 11 -41 16 -50 4 -8 15 -40 24
-70 22 -78 51 -176 70 -237 11 -39 15 -99 15 -243 0 -170 -2 -195 -20 -229
-18 -36 -87 -101 -106 -101 -5 0 -22 -7 -38 -15 -129 -67 -686 -67 -833 1 -17
7 -35 14 -40 14 -16 0 -102 94 -112 123 -6 16 -11 109 -11 219 0 183 7 245 39
323 5 11 18 54 31 95 12 41 26 84 30 95 5 11 25 74 45 140 60 195 77 249 85
270 5 11 18 54 30 95 12 41 25 84 30 95 5 11 12 31 15 45 13 50 77 256 88 283
7 15 15 27 19 27 5 0 8 -283 8 -629z"/>
<path d="M500 1295 c0 -87 3 -105 15 -105 11 0 15 12 15 45 l0 45 49 0 c40 0
53 4 65 22 40 56 3 98 -84 98 l-60 0 0 -105z m111 75 c21 -12 25 -40 7 -58 -7
-7 -29 -12 -50 -12 -38 0 -38 0 -38 40 0 38 2 40 31 40 17 0 39 -5 50 -10z"/>
<path d="M680 1391 c0 -6 15 -11 33 -13 l32 -3 3 -92 c1 -51 7 -93 12 -93 5 0
11 42 12 93 l3 92 33 3 c64 6 30 22 -48 22 -44 0 -80 -4 -80 -9z"/>
<path d="M1000 1296 c0 -88 3 -106 15 -106 12 0 15 16 16 83 l1 82 27 -80 c16
-47 33 -80 41 -80 8 0 26 33 41 75 l28 75 0 -77 c1 -62 4 -78 16 -78 12 0 15
18 15 105 0 97 -1 105 -19 105 -16 0 -25 -17 -47 -85 -16 -46 -30 -82 -33 -79
-4 3 -18 40 -32 82 -20 61 -30 78 -47 80 -21 3 -22 0 -22 -102z"/>
<path d="M2050 1295 c0 -63 4 -105 10 -105 6 0 10 42 10 105 0 63 -4 105 -10
105 -6 0 -10 -42 -10 -105z"/>
<path d="M2360 1315 c0 -72 3 -88 20 -105 26 -26 80 -26 114 1 24 19 26 26 26
105 0 68 -3 84 -15 84 -12 0 -15 -16 -15 -85 0 -81 -1 -86 -24 -95 -34 -12
-66 -1 -77 27 -5 13 -9 53 -9 89 0 36 -4 64 -10 64 -6 0 -10 -35 -10 -85z"/>
<path d="M2880 1295 c0 -63 4 -105 10 -105 6 0 10 25 10 55 0 43 4 56 19 65
37 19 51 3 51 -61 0 -46 3 -59 15 -59 21 0 21 98 -1 128 -17 24 -53 29 -72 10
-9 -9 -12 -3 -12 30 0 23 -4 42 -10 42 -6 0 -10 -42 -10 -105z"/>
<path d="M3280 1296 c0 -128 18 -143 22 -18 l3 87 30 -88 c20 -61 34 -87 44
-85 8 2 26 38 42 83 l27 80 1 -82 c1 -67 4 -83 16 -83 12 0 15 18 15 105 0 97
-1 105 -19 105 -15 0 -25 -15 -40 -55 -12 -31 -21 -58 -21 -60 0 -2 -5 -16
-11 -32 -11 -27 -13 -25 -38 57 -22 70 -31 86 -49 88 -22 3 -22 1 -22 -102z"/>
<path d="M4650 1295 c0 -63 4 -105 10 -105 6 0 10 42 10 105 0 63 -4 105 -10
105 -6 0 -10 -42 -10 -105z"/>
<path d="M1258 1329 c-18 -10 -25 -39 -9 -39 5 0 14 7 21 15 16 19 44 19 59 1
13 -16 -4 -26 -43 -26 -26 0 -56 -29 -56 -54 0 -26 45 -42 81 -29 16 6 29 7
29 2 0 -5 6 -9 13 -9 19 0 10 122 -11 138 -19 14 -60 15 -84 1z m70 -91 c-17
-26 -45 -35 -60 -20 -20 20 0 42 38 42 36 0 36 -1 22 -22z"/>
<path d="M1400 1265 c0 -60 3 -75 15 -75 11 0 15 13 15 54 0 60 19 88 48 69
12 -7 18 -27 20 -67 2 -31 7 -56 13 -56 6 0 9 27 7 66 -4 79 -18 96 -68 77
-16 -6 -30 -7 -30 -2 0 5 -4 9 -10 9 -6 0 -10 -32 -10 -75z"/>
<path d="M1576 1321 c-9 -10 -16 -35 -16 -58 0 -52 27 -78 70 -70 32 7 41 -8
18 -31 -17 -17 -38 -15 -60 5 -21 19 -31 14 -22 -11 8 -21 50 -31 82 -20 32
11 40 37 41 130 l1 71 -49 1 c-35 1 -53 -4 -65 -17z m72 -13 c27 -27 9 -98
-24 -98 -20 0 -44 30 -44 55 0 42 42 69 68 43z"/>
<path d="M1736 1321 c-9 -10 -16 -35 -16 -58 0 -52 27 -78 70 -70 32 7 41 -8
18 -31 -17 -17 -38 -15 -60 5 -21 19 -31 14 -22 -11 8 -21 50 -31 82 -20 32
11 40 37 41 130 l1 71 -49 1 c-35 1 -53 -4 -65 -17z m72 -13 c27 -27 9 -98
-24 -98 -20 0 -44 30 -44 55 0 42 42 69 68 43z"/>
<path d="M1898 1318 c-14 -14 -17 -23 -10 -26 7 -2 19 4 28 13 20 19 59 16 59
-5 0 -9 -13 -17 -35 -20 -48 -8 -60 -17 -60 -44 0 -42 45 -60 91 -36 13 7 19
7 19 0 0 -5 5 -10 10 -10 17 0 12 116 -6 134 -22 23 -70 20 -96 -6z m82 -68
c0 -28 -44 -48 -65 -30 -20 16 -4 37 33 43 15 2 28 5 30 6 1 0 2 -8 2 -19z"/>
<path d="M2126 1324 c-18 -17 -21 -34 -7 -34 5 0 14 7 21 15 14 17 38 19 60 5
13 -9 13 -11 0 -20 -8 -5 -25 -10 -36 -10 -12 0 -32 -8 -44 -18 -46 -37 9 -90
66 -63 15 6 24 7 24 1 0 -6 6 -10 13 -10 16 0 11 117 -5 138 -15 17 -74 15
-92 -4z m84 -73 c0 -17 -31 -41 -51 -41 -24 0 -37 29 -18 41 19 12 69 11 69 0z"/>
<path d="M2576 1324 c-30 -30 -16 -56 39 -70 43 -10 47 -14 34 -30 -15 -19
-38 -18 -61 3 -20 18 -34 12 -25 -11 16 -41 110 -29 115 15 3 26 -3 31 -71 53
-10 3 -17 12 -15 19 7 18 34 20 51 2 19 -19 27 -19 27 0 0 32 -67 46 -94 19z"/>
<path d="M2726 1324 c-18 -17 -21 -34 -7 -34 5 0 14 7 21 15 14 17 38 19 60 5
13 -9 13 -11 0 -20 -8 -5 -25 -10 -36 -10 -12 0 -32 -8 -44 -18 -46 -37 9 -90
66 -63 15 6 24 7 24 1 0 -6 6 -10 13 -10 16 0 11 117 -5 138 -15 17 -74 15
-92 -4z m84 -73 c0 -17 -31 -41 -51 -41 -24 0 -37 29 -18 41 19 12 69 11 69 0z"/>
<path d="M3047 1322 c-10 -10 -17 -22 -17 -25 0 -12 21 -7 36 8 18 17 33 19
54 5 13 -9 13 -11 0 -20 -8 -5 -24 -10 -36 -10 -32 0 -56 -23 -52 -50 5 -34
31 -47 68 -33 17 6 32 7 36 2 3 -5 9 -9 14 -9 13 0 0 133 -14 142 -21 14 -73
8 -89 -10z m83 -72 c0 -24 -34 -43 -60 -35 -29 9 -24 34 8 41 15 3 32 7 37 9
6 2 11 4 13 4 1 1 2 -8 2 -19z"/>
<path d="M3538 1329 c-18 -10 -25 -39 -9 -39 5 0 14 7 21 15 16 19 44 19 59 1
13 -16 -4 -26 -43 -26 -26 0 -56 -29 -56 -54 0 -26 45 -42 81 -29 16 6 29 7
29 2 0 -5 6 -9 13 -9 19 0 10 122 -11 138 -19 14 -60 15 -84 1z m70 -91 c-17
-26 -45 -35 -60 -20 -20 20 0 42 38 42 36 0 36 -1 22 -22z"/>
<path d="M3680 1265 c0 -43 4 -75 10 -75 6 0 10 17 10 38 0 55 10 81 33 88 29
9 47 -20 47 -78 0 -26 5 -48 10 -48 6 0 10 28 10 65 0 60 -2 66 -25 77 -19 8
-31 8 -50 0 -15 -7 -25 -8 -25 -2 0 6 -4 10 -10 10 -6 0 -10 -32 -10 -75z"/>
<path d="M3840 1281 c0 -41 5 -65 16 -75 18 -19 55 -21 72 -4 9 9 12 9 12 0 0
-7 5 -12 10 -12 6 0 10 32 10 75 0 43 -4 75 -10 75 -5 0 -10 -22 -10 -49 0
-53 -20 -84 -49 -79 -12 2 -17 17 -19 66 -2 46 -7 62 -17 62 -12 0 -15 -14
-15 -59z"/>
<path d="M4010 1265 c0 -43 4 -75 10 -75 6 0 10 24 10 54 0 59 16 82 50 71 17
-5 20 -15 20 -66 0 -48 3 -59 16 -59 14 0 16 9 11 60 -3 34 -11 67 -17 75 -15
18 -52 19 -68 3 -9 -9 -12 -9 -12 0 0 7 -4 12 -10 12 -6 0 -10 -32 -10 -75z"/>
<path d="M4176 1321 c-9 -10 -16 -35 -16 -58 0 -52 27 -78 70 -70 32 7 41 -8
18 -31 -17 -17 -38 -15 -60 5 -21 19 -31 14 -22 -11 8 -21 50 -31 82 -20 32
11 40 37 41 130 l1 71 -49 1 c-35 1 -53 -4 -65 -17z m72 -13 c27 -27 9 -98
-24 -98 -20 0 -44 30 -44 55 0 42 42 69 68 43z"/>
<path d="M4339 1319 c-46 -46 -8 -137 52 -125 20 4 29 1 29 -7 0 -33 -55 -51
-66 -22 -6 16 -34 21 -34 7 0 -17 37 -42 63 -42 51 0 67 30 67 123 l0 82 -46
2 c-33 1 -51 -4 -65 -18z m77 -24 c31 -48 -16 -106 -56 -70 -24 22 -26 52 -3
77 22 25 39 23 59 -7z"/>
<path d="M4498 1318 c-14 -14 -17 -23 -10 -26 7 -2 19 4 28 13 20 19 59 16 59
-5 0 -9 -13 -17 -35 -20 -48 -8 -60 -17 -60 -44 0 -42 45 -60 91 -36 13 7 19
7 19 0 0 -5 5 -10 10 -10 17 0 12 116 -6 134 -22 23 -70 20 -96 -6z m82 -68
c0 -28 -44 -48 -65 -30 -20 16 -4 37 33 43 15 2 28 5 30 6 1 0 2 -8 2 -19z"/>
<path d="M850 1205 c0 -8 5 -15 10 -15 6 0 10 7 10 15 0 8 -4 15 -10 15 -5 0
-10 -7 -10 -15z"/>
</g>
</svg>
