<?xml version="1.0" standalone="no"?>
<!DOCTYPE svg PUBLIC "-//W3C//DTD SVG 20010904//EN"
 "http://www.w3.org/TR/2001/REC-SVG-20010904/DTD/svg10.dtd">
<svg version="1.0" xmlns="http://www.w3.org/2000/svg"
 width="200.000000pt" height="200.000000pt" viewBox="0 0 200.000000 200.000000"
 preserveAspectRatio="xMidYMid meet">

<g transform="translate(0.000000,200.000000) scale(0.100000,-0.100000)"
fill="#000000" stroke="none">
<path d="M937 1429 c-43 -27 -106 -70 -140 -96 -124 -95 -404 -391 -605 -642
-99 -123 -112 -156 -70 -185 34 -24 55 -19 85 20 99 130 200 243 367 412 204
207 344 335 441 403 33 23 63 46 66 51 3 5 10 9 14 9 15 -2 13 27 -2 33 -8 3
-11 1 -8 -4 4 -6 -5 -5 -19 2 -14 6 -26 15 -26 20 0 4 -7 8 -16 8 -8 0 -12 5
-9 10 9 14 8 14 -78 -41z"/>
<path d="M1634 1406 c-75 -24 -184 -117 -383 -329 -35 -37 -69 -69 -75 -70
-10 -2 -108 -179 -122 -221 -6 -17 -3 -18 27 -12 52 10 132 79 283 245 128
140 267 271 288 271 16 0 7 -29 -63 -206 -82 -206 -93 -268 -59 -322 29 -47
77 -65 136 -52 55 12 69 19 151 74 75 50 92 77 63 106 -29 29 -47 25 -151 -25
-51 -25 -96 -42 -101 -37 -10 10 27 124 93 287 75 189 76 255 4 289 -38 19
-38 19 -91 2z"/>
<path d="M395 618 c-2 -7 -6 -47 -7 -88 -3 -64 -1 -75 15 -78 15 -3 17 5 17
59 0 71 9 69 35 -8 12 -39 22 -53 35 -53 13 0 23 14 35 53 26 77 35 79 35 9 0
-55 2 -62 19 -62 18 0 19 5 14 73 -6 79 -16 107 -38 107 -11 0 -24 -26 -58
-120 -3 -10 -8 -6 -16 16 -23 61 -46 99 -64 102 -9 2 -19 -2 -22 -10z"/>
<path d="M679 609 c-15 -29 -49 -129 -49 -146 0 -21 28 -15 35 7 5 16 15 20
46 20 32 0 39 -3 39 -20 0 -13 7 -20 20 -20 11 0 20 2 20 4 0 27 -54 165 -66
170 -25 10 -33 7 -45 -15z m44 -36 c2 -10 8 -26 12 -35 6 -15 2 -18 -24 -18
-34 0 -37 6 -19 45 13 29 24 32 31 8z"/>
<path d="M827 623 c-9 -8 -9 -136 -1 -157 3 -9 12 -16 20 -16 9 0 14 18 16 63
l3 62 34 -62 c23 -43 40 -63 53 -63 17 0 19 7 16 87 -2 58 -7 88 -15 91 -10 3
-13 -14 -13 -60 l0 -63 -30 55 c-36 65 -62 85 -83 63z"/>
<path d="M1049 601 c-54 -54 -28 -143 45 -157 49 -9 76 9 76 51 0 24 -5 35
-15 35 -9 0 -15 -9 -15 -24 0 -14 -5 -28 -11 -31 -20 -13 -57 5 -68 33 -24 58
20 104 84 88 27 -7 32 3 13 22 -23 23 -77 14 -109 -17z"/>
<path d="M1239 601 c-54 -54 -28 -143 45 -157 49 -9 76 9 76 51 0 43 -27 49
-32 8 -4 -39 -39 -42 -67 -6 -41 51 -6 108 62 100 38 -5 45 1 25 21 -23 23
-77 14 -109 -17z"/>
<path d="M1427 573 c-36 -82 -43 -123 -22 -123 9 0 19 9 22 20 4 16 14 20 43
20 29 0 39 -4 43 -20 3 -11 12 -20 21 -20 19 0 16 19 -15 109 -31 90 -56 94
-92 14z m62 -14 c6 -18 11 -34 11 -35 0 -2 -13 -4 -30 -4 -16 0 -30 2 -30 4 0
14 24 66 30 66 4 0 13 -14 19 -31z"/>
<path d="M1590 552 c0 -91 9 -104 67 -106 27 -1 38 4 41 15 2 12 -4 15 -26 11
-39 -5 -50 13 -54 88 -2 39 -8 65 -15 68 -10 3 -13 -17 -13 -76z"/>
<path d="M1764 575 c-34 -73 -42 -125 -20 -125 9 0 16 8 16 20 0 17 7 20 41
20 32 0 42 -4 46 -20 7 -25 33 -26 33 -2 0 25 -37 131 -51 148 -21 26 -40 14
-65 -41z m61 -27 c6 -25 5 -28 -19 -28 -28 0 -34 17 -15 52 13 23 25 15 34
-24z"/>
</g>
</svg>
